<svg width="884" height="159" viewBox="0 0 884 159" fill="none" xmlns="http://www.w3.org/2000/svg">
<path d="M228.29 26.112V135H206.45V88.668H159.806V135H137.966V26.112H159.806V70.884H206.45V26.112H228.29ZM260.862 38.28C257.014 38.28 253.79 37.084 251.19 34.692C248.694 32.196 247.446 29.128 247.446 25.488C247.446 21.848 248.694 18.832 251.19 16.44C253.79 13.944 257.014 12.696 260.862 12.696C264.71 12.696 267.882 13.944 270.378 16.44C272.978 18.832 274.278 21.848 274.278 25.488C274.278 29.128 272.978 32.196 270.378 34.692C267.882 37.084 264.71 38.28 260.862 38.28ZM271.626 48.576V135H249.786V48.576H271.626ZM411.92 26.112V135H390.08V64.176L360.908 135H344.372L315.044 64.176V135H293.204V26.112H318.008L352.64 107.076L387.272 26.112H411.92ZM444.589 38.28C440.741 38.28 437.517 37.084 434.917 34.692C432.421 32.196 431.173 29.128 431.173 25.488C431.173 21.848 432.421 18.832 434.917 16.44C437.517 13.944 440.741 12.696 444.589 12.696C448.437 12.696 451.609 13.944 454.105 16.44C456.705 18.832 458.005 21.848 458.005 25.488C458.005 29.128 456.705 32.196 454.105 34.692C451.609 37.084 448.437 38.28 444.589 38.28ZM455.353 48.576V135H433.513V48.576H455.353ZM471.315 91.476C471.315 82.74 473.031 74.992 476.463 68.232C479.999 61.472 484.783 56.272 490.815 52.632C496.847 48.992 503.555 47.172 510.939 47.172C516.555 47.172 521.911 48.42 527.007 50.916C532.103 53.308 536.159 56.532 539.175 60.588V19.56H561.327V135H539.175V122.208C536.471 126.472 532.675 129.904 527.787 132.504C522.899 135.104 517.231 136.404 510.783 136.404C503.503 136.404 496.847 134.532 490.815 130.788C484.783 127.044 479.999 121.792 476.463 115.032C473.031 108.168 471.315 100.316 471.315 91.476ZM539.331 91.788C539.331 86.484 538.291 81.96 536.211 78.216C534.131 74.368 531.323 71.456 527.787 69.48C524.251 67.4 520.455 66.36 516.399 66.36C512.343 66.36 508.599 67.348 505.167 69.324C501.735 71.3 498.927 74.212 496.743 78.06C494.663 81.804 493.623 86.276 493.623 91.476C493.623 96.676 494.663 101.252 496.743 105.204C498.927 109.052 501.735 112.016 505.167 114.096C508.703 116.176 512.447 117.216 516.399 117.216C520.455 117.216 524.251 116.228 527.787 114.252C531.323 112.172 534.131 109.26 536.211 105.516C538.291 101.668 539.331 97.092 539.331 91.788ZM604.497 117.684H640.377V135H582.657V26.112H604.497V117.684ZM692.635 136.404C684.315 136.404 676.827 134.584 670.171 130.944C663.515 127.2 658.263 121.948 654.415 115.188C650.671 108.428 648.799 100.628 648.799 91.788C648.799 82.948 650.723 75.148 654.571 68.388C658.523 61.628 663.879 56.428 670.639 52.788C677.399 49.044 684.939 47.172 693.259 47.172C701.579 47.172 709.119 49.044 715.879 52.788C722.639 56.428 727.943 61.628 731.791 68.388C735.743 75.148 737.719 82.948 737.719 91.788C737.719 100.628 735.691 108.428 731.635 115.188C727.683 121.948 722.275 127.2 715.411 130.944C708.651 134.584 701.059 136.404 692.635 136.404ZM692.635 117.372C696.587 117.372 700.279 116.436 703.711 114.564C707.247 112.588 710.055 109.676 712.135 105.828C714.215 101.98 715.255 97.3 715.255 91.788C715.255 83.572 713.071 77.28 708.703 72.912C704.439 68.44 699.187 66.204 692.947 66.204C686.707 66.204 681.455 68.44 677.191 72.912C673.031 77.28 670.951 83.572 670.951 91.788C670.951 100.004 672.979 106.348 677.035 110.82C681.195 115.188 686.395 117.372 692.635 117.372ZM873.547 48.576L848.275 135H824.719L808.963 74.628L793.207 135H769.495L744.067 48.576H766.219L781.507 114.408L798.043 48.576H821.131L837.355 114.252L852.643 48.576H873.547Z" fill="white"/>
<path d="M81.1586 137.001C81.1586 139.138 82.8914 140.871 85.0288 140.871C87.1663 140.871 88.899 139.138 88.899 137.001L81.1586 137.001ZM87.7654 85.6105C86.254 84.0991 83.8036 84.0991 82.2922 85.6105L57.6624 110.24C56.151 111.752 56.151 114.202 57.6624 115.714C59.1738 117.225 61.6243 117.225 63.1357 115.714L85.0288 93.8204L106.922 115.714C108.433 117.225 110.884 117.225 112.395 115.714C113.907 114.202 113.907 111.752 112.395 110.24L87.7654 85.6105ZM88.899 137.001L88.899 88.3471L81.1586 88.3471L81.1586 137.001L88.899 137.001Z" fill="white"/>
<path d="M82.2922 73.3909C83.8036 74.9023 86.254 74.9023 87.7654 73.3909L112.395 48.7612C113.907 47.2498 113.907 44.7993 112.395 43.2879C110.884 41.7765 108.433 41.7765 106.922 43.2879L85.0288 65.181L63.1357 43.2879C61.6243 41.7765 59.1738 41.7765 57.6624 43.2879C56.151 44.7993 56.151 47.2498 57.6624 48.7612L82.2922 73.3909ZM88.899 22.0005C88.899 19.863 87.1663 18.1303 85.0288 18.1303C82.8914 18.1303 81.1586 19.863 81.1586 22.0005L88.899 22.0005ZM88.899 70.6543L88.899 22.0005L81.1586 22.0005L81.1586 70.6543L88.899 70.6543Z" fill="white"/>
<path d="M73.3904 82.2376C74.9019 80.7262 74.9019 78.2757 73.3904 76.7643L48.7607 52.1346C47.2493 50.6232 44.7988 50.6232 43.2874 52.1346C41.776 53.646 41.776 56.0965 43.2874 57.6079L65.1805 79.501L43.2874 101.394C41.776 102.905 41.776 105.356 43.2874 106.867C44.7988 108.379 47.2493 108.379 48.7607 106.867L73.3904 82.2376ZM22 75.6308C19.8625 75.6308 18.1298 77.3635 18.1298 79.501C18.1298 81.6384 19.8625 83.3712 22 83.3712V75.6308ZM70.6538 75.6308L22 75.6308V83.3712L70.6538 83.3712V75.6308Z" fill="white"/>
<rect x="105.692" y="91.6641" width="17.6923" height="17.6923" rx="3.31731" transform="rotate(-135 105.692 91.6641)" fill="white"/>
</svg>
