<svg width="884" height="159" viewBox="0 0 884 159" fill="none" xmlns="http://www.w3.org/2000/svg">
<path d="M216.291 32.112V141H194.451V94.668H147.807V141H125.967V32.112H147.807V76.884H194.451V32.112H216.291ZM248.863 44.28C245.015 44.28 241.791 43.084 239.191 40.692C236.695 38.196 235.447 35.128 235.447 31.488C235.447 27.848 236.695 24.832 239.191 22.44C241.791 19.944 245.015 18.696 248.863 18.696C252.711 18.696 255.883 19.944 258.379 22.44C260.979 24.832 262.279 27.848 262.279 31.488C262.279 35.128 260.979 38.196 258.379 40.692C255.883 43.084 252.711 44.28 248.863 44.28ZM259.627 54.576V141H237.787V54.576H259.627ZM399.921 32.112V141H378.081V70.176L348.909 141H332.373L303.045 70.176V141H281.205V32.112H306.009L340.641 113.076L375.273 32.112H399.921ZM432.59 44.28C428.742 44.28 425.518 43.084 422.918 40.692C420.422 38.196 419.174 35.128 419.174 31.488C419.174 27.848 420.422 24.832 422.918 22.44C425.518 19.944 428.742 18.696 432.59 18.696C436.438 18.696 439.61 19.944 442.106 22.44C444.706 24.832 446.006 27.848 446.006 31.488C446.006 35.128 444.706 38.196 442.106 40.692C439.61 43.084 436.438 44.28 432.59 44.28ZM443.354 54.576V141H421.514V54.576H443.354ZM459.316 97.476C459.316 88.74 461.032 80.992 464.464 74.232C468 67.472 472.784 62.272 478.816 58.632C484.848 54.992 491.556 53.172 498.94 53.172C504.556 53.172 509.912 54.42 515.008 56.916C520.104 59.308 524.16 62.532 527.176 66.588V25.56H549.328V141H527.176V128.208C524.472 132.472 520.676 135.904 515.788 138.504C510.9 141.104 505.232 142.404 498.784 142.404C491.504 142.404 484.848 140.532 478.816 136.788C472.784 133.044 468 127.792 464.464 121.032C461.032 114.168 459.316 106.316 459.316 97.476ZM527.332 97.788C527.332 92.484 526.292 87.96 524.212 84.216C522.132 80.368 519.324 77.456 515.788 75.48C512.252 73.4 508.456 72.36 504.4 72.36C500.344 72.36 496.6 73.348 493.168 75.324C489.736 77.3 486.928 80.212 484.744 84.06C482.664 87.804 481.624 92.276 481.624 97.476C481.624 102.676 482.664 107.252 484.744 111.204C486.928 115.052 489.736 118.016 493.168 120.096C496.704 122.176 500.448 123.216 504.4 123.216C508.456 123.216 512.252 122.228 515.788 120.252C519.324 118.172 522.132 115.26 524.212 111.516C526.292 107.668 527.332 103.092 527.332 97.788ZM592.498 123.684H628.378V141H570.658V32.112H592.498V123.684ZM680.636 142.404C672.316 142.404 664.828 140.584 658.172 136.944C651.516 133.2 646.264 127.948 642.416 121.188C638.672 114.428 636.8 106.628 636.8 97.788C636.8 88.948 638.724 81.148 642.572 74.388C646.524 67.628 651.88 62.428 658.64 58.788C665.4 55.044 672.94 53.172 681.26 53.172C689.58 53.172 697.12 55.044 703.88 58.788C710.64 62.428 715.944 67.628 719.792 74.388C723.744 81.148 725.72 88.948 725.72 97.788C725.72 106.628 723.692 114.428 719.636 121.188C715.684 127.948 710.276 133.2 703.412 136.944C696.652 140.584 689.06 142.404 680.636 142.404ZM680.636 123.372C684.588 123.372 688.28 122.436 691.712 120.564C695.248 118.588 698.056 115.676 700.136 111.828C702.216 107.98 703.256 103.3 703.256 97.788C703.256 89.572 701.072 83.28 696.704 78.912C692.44 74.44 687.188 72.204 680.948 72.204C674.708 72.204 669.456 74.44 665.192 78.912C661.032 83.28 658.952 89.572 658.952 97.788C658.952 106.004 660.98 112.348 665.036 116.82C669.196 121.188 674.396 123.372 680.636 123.372ZM861.548 54.576L836.276 141H812.72L796.964 80.628L781.208 141H757.496L732.068 54.576H754.22L769.508 120.408L786.044 54.576H809.132L825.356 120.252L840.644 54.576H861.548Z" fill="black"/>
<path d="M69.1596 143.001C69.1596 145.138 70.8923 146.871 73.0298 146.871C75.1672 146.871 76.9 145.138 76.9 143.001L69.1596 143.001ZM75.7664 91.6105C74.255 90.0991 71.8045 90.0991 70.2931 91.6105L45.6634 116.24C44.152 117.752 44.152 120.202 45.6634 121.714C47.1748 123.225 49.6253 123.225 51.1367 121.714L73.0298 99.8204L94.9229 121.714C96.4343 123.225 98.8848 123.225 100.396 121.714C101.908 120.202 101.908 117.752 100.396 116.24L75.7664 91.6105ZM76.9 143.001L76.9 94.3471L69.1596 94.3471L69.1596 143.001L76.9 143.001Z" fill="black"/>
<path d="M70.2931 79.3909C71.8046 80.9023 74.255 80.9023 75.7664 79.3909L100.396 54.7612C101.908 53.2498 101.908 50.7993 100.396 49.2879C98.8848 47.7765 96.4343 47.7765 94.9229 49.2879L73.0298 71.181L51.1367 49.2879C49.6253 47.7765 47.1748 47.7765 45.6634 49.2879C44.152 50.7993 44.152 53.2498 45.6634 54.7612L70.2931 79.3909ZM76.9 28.0005C76.9 25.863 75.1672 24.1303 73.0298 24.1303C70.8923 24.1303 69.1596 25.863 69.1596 28.0005L76.9 28.0005ZM76.9 76.6543L76.9 28.0005L69.1596 28.0005L69.1596 76.6543L76.9 76.6543Z" fill="black"/>
<path d="M61.3914 88.2376C62.9028 86.7262 62.9028 84.2757 61.3914 82.7643L36.7617 58.1346C35.2503 56.6232 32.7998 56.6232 31.2884 58.1346C29.777 59.646 29.777 62.0965 31.2884 63.6079L53.1815 85.501L31.2884 107.394C29.777 108.905 29.777 111.356 31.2884 112.867C32.7998 114.379 35.2503 114.379 36.7617 112.867L61.3914 88.2376ZM10.001 81.6308C7.86351 81.6308 6.13077 83.3635 6.13077 85.501C6.13077 87.6384 7.86351 89.3712 10.001 89.3712V81.6308ZM58.6548 81.6308L10.001 81.6308V89.3712L58.6548 89.3712V81.6308Z" fill="black"/>
<rect x="93.6925" y="97.6641" width="17.6923" height="17.6923" rx="3.31731" transform="rotate(-135 93.6925 97.6641)" fill="black"/>
</svg>
