<svg width="133" height="184" viewBox="0 0 133 184" fill="none" xmlns="http://www.w3.org/2000/svg">
<path d="M85.6384 162.034C85.6384 164.767 87.8538 166.982 90.5867 166.982C93.3195 166.982 95.5349 164.767 95.5349 162.034L85.6384 162.034ZM94.0856 96.3288C92.1532 94.3964 89.0201 94.3964 87.0877 96.3288L55.5973 127.819C53.6649 129.752 53.6649 132.885 55.5973 134.817C57.5297 136.749 60.6628 136.749 62.5952 134.817L90.5867 106.826L118.578 134.817C120.511 136.749 123.644 136.749 125.576 134.817C127.508 132.885 127.508 129.752 125.576 127.819L94.0856 96.3288ZM95.5349 162.034L95.5349 99.8277L85.6384 99.8277L85.6384 162.034L95.5349 162.034Z" fill="white"/>
<path d="M87.0877 80.705C89.0201 82.6374 92.1532 82.6374 94.0856 80.705L125.576 49.2146C127.508 47.2822 127.508 44.1491 125.576 42.2167C123.644 40.2843 120.511 40.2843 118.578 42.2167L90.5867 70.2082L62.5952 42.2167C60.6628 40.2843 57.5297 40.2843 55.5973 42.2167C53.6649 44.1491 53.6649 47.2822 55.5973 49.2146L87.0877 80.705ZM95.5349 14.9996C95.5349 12.2668 93.3195 10.0514 90.5867 10.0514C87.8538 10.0514 85.6384 12.2668 85.6384 14.9996L95.5349 14.9996ZM95.5349 77.2061L95.5349 14.9996L85.6384 14.9996L85.6384 77.2061L95.5349 77.2061Z" fill="white"/>
<path d="M75.7065 92.0165C77.6389 90.0841 77.6389 86.9511 75.7065 85.0186L44.216 53.5282C42.2836 51.5958 39.1506 51.5958 37.2182 53.5282C35.2858 55.4606 35.2858 58.5937 37.2182 60.5261L65.2096 88.5176L37.2182 116.509C35.2858 118.441 35.2858 121.575 37.2182 123.507C39.1506 125.439 42.2836 125.439 44.216 123.507L75.7065 92.0165ZM10.0011 83.5693C7.26822 83.5693 5.05282 85.7847 5.05282 88.5176C5.05282 91.2504 7.26822 93.4658 10.0011 93.4658V83.5693ZM72.2075 83.5693L10.0011 83.5693V93.4658L72.2075 93.4658V83.5693Z" fill="white"/>
<rect x="117.005" y="104.068" width="22.6205" height="22.6205" rx="4.24135" transform="rotate(-135 117.005 104.068)" fill="white"/>
</svg>
