<svg width="84" height="61" viewBox="0 0 84 61" fill="none" xmlns="http://www.w3.org/2000/svg">
<g clip-path="url(#clip0_657_57)">
<path d="M78.43 0.639986L83.23 6.87999C72.99 16 67.87 24.88 67.87 33.52C67.87 36.08 68.67 38.48 70.27 40.72C72.03 42.96 72.91 45.68 72.91 48.88C72.91 52.08 71.47 54.88 68.59 57.28C65.71 59.52 62.51 60.64 58.99 60.64C55.47 60.64 52.59 59.44 50.35 57.04C48.27 54.48 47.23 50.72 47.23 45.76C47.23 37.6 50.19 29.52 56.11 21.52C62.19 13.36 69.63 6.39999 78.43 0.639986ZM32.59 0.639986L37.39 6.87999C27.15 16 22.03 24.88 22.03 33.52C22.03 36.08 22.83 38.48 24.43 40.72C26.19 42.96 27.07 45.68 27.07 48.88C27.07 52.08 25.63 54.88 22.75 57.28C19.87 59.52 16.67 60.64 13.15 60.64C9.63 60.64 6.75 59.44 4.51 57.04C2.43 54.48 1.39 50.72 1.39 45.76C1.39 37.6 4.35 29.52 10.27 21.52C16.35 13.36 23.79 6.39999 32.59 0.639986Z" fill="#C72323"/>
</g>
<defs>
<clipPath id="clip0_657_57">
<rect width="84" height="61" fill="white"/>
</clipPath>
</defs>
</svg>
